<svg width="233" height="35" viewBox="0 0 233 35" fill="none" xmlns="http://www.w3.org/2000/svg">
<path d="M199.577 9.24545C192.905 9.24545 187.497 14.6382 187.497 21.2902C187.497 25.3341 189.497 28.909 192.565 31.093C193.151 30.1657 194.184 29.5466 195.36 29.5466C197.183 29.5466 198.666 31.0245 198.666 32.8423C198.666 32.9951 198.652 33.1452 198.631 33.2927C198.943 33.3165 199.26 33.3323 199.577 33.3323C199.894 33.3323 200.211 33.3165 200.523 33.2927C200.502 33.1452 200.489 32.9951 200.489 32.8423C200.489 31.0245 201.971 29.5466 203.794 29.5466C204.973 29.5466 206.006 30.1657 206.59 31.093C209.658 28.909 211.658 25.3341 211.658 21.2902C211.658 14.6382 206.246 9.24545 199.577 9.24545ZM199.625 28.635C195.572 28.635 192.284 25.3578 192.284 21.3165C192.284 17.2753 195.572 13.998 199.625 13.998C203.678 13.998 206.965 17.2753 206.965 21.3165C206.965 25.3578 203.678 28.635 199.625 28.635Z" fill="black"/>
<path d="M199.627 8.01253C200.446 8.01253 201.11 7.35084 201.11 6.5346C201.11 5.71836 200.446 5.05667 199.627 5.05667C198.809 5.05667 198.145 5.71836 198.145 6.5346C198.145 7.35084 198.809 8.01253 199.627 8.01253Z" fill="black"/>
<path d="M206.303 9.2419C208.863 9.2419 210.938 7.17303 210.938 4.62095C210.938 2.06887 208.863 0 206.303 0C203.744 0 201.669 2.06887 201.669 4.62095C201.669 7.17303 203.744 9.2419 206.303 9.2419Z" fill="black"/>
<path d="M197.524 32.8423C197.524 32.9504 197.516 33.0505 197.5 33.1532C197.35 34.1991 196.449 35 195.36 35C194.163 35 193.193 34.0331 193.193 32.8423C193.193 32.4261 193.315 32.0388 193.516 31.7095C193.899 31.0957 194.578 30.6847 195.357 30.6847C196.557 30.6821 197.524 31.6489 197.524 32.8423Z" fill="#FCBA00"/>
<path d="M205.958 32.8423C205.958 34.0357 204.989 35 203.792 35C202.703 35 201.802 34.1965 201.651 33.1532C201.636 33.0505 201.628 32.9477 201.628 32.8423C201.628 31.6489 202.597 30.6847 203.792 30.6847C204.571 30.6847 205.25 31.0957 205.633 31.7095C205.837 32.0388 205.958 32.4261 205.958 32.8423Z" fill="#FCBA00"/>
<path d="M0.708142 33.1426C0.504684 33.1426 0.338217 33.0688 0.203459 32.9239C0.0660581 32.779 0 32.6183 0 32.4365C0 32.3259 0.0105693 32.2231 0.0343502 32.1336L8.0538 10.5363C8.1225 10.2913 8.25726 10.0779 8.45807 9.89878C8.66153 9.71964 8.94162 9.63007 9.30098 9.63007H13.6132C13.9726 9.63007 14.2527 9.71964 14.4561 9.89878C14.6596 10.0779 14.7944 10.2913 14.8604 10.5363L22.8799 32.1336C22.901 32.2231 22.9142 32.3233 22.9142 32.4365C22.9142 32.6157 22.8455 32.779 22.7108 32.9239C22.576 33.0688 22.4069 33.1426 22.2061 33.1426H18.6971C18.3615 33.1426 18.1131 33.0635 17.9546 32.9081C17.796 32.7527 17.6956 32.6051 17.6507 32.4708L16.2027 28.7088H6.70357L5.25558 32.4708C5.21066 32.6051 5.11025 32.75 4.95171 32.9081C4.79317 33.0662 4.54744 33.1426 4.20922 33.1426H0.708142V33.1426ZM7.95075 24.3751H14.9238L11.4545 14.7014L7.95075 24.3751Z" fill="black"/>
<path d="M26.6478 33.1426C26.3994 33.1426 26.1986 33.0636 26.0427 32.9081C25.8841 32.7527 25.8075 32.5498 25.8075 32.3048V10.4705C25.8075 10.2255 25.8868 10.0226 26.0427 9.86719C26.1986 9.71175 26.402 9.63272 26.6478 9.63272H29.7128C30.0484 9.63272 30.2968 9.71175 30.4553 9.86719C30.6112 10.0253 30.7143 10.1464 30.7592 10.236L39.7537 24.2408V10.4705C39.7537 10.2255 39.8329 10.0226 39.9888 9.86719C40.1447 9.71175 40.3376 9.63272 40.5622 9.63272H43.9999C44.2456 9.63272 44.4491 9.71175 44.605 9.86719C44.7609 10.0253 44.8401 10.2255 44.8401 10.4705V32.3048C44.8401 32.5288 44.7609 32.7237 44.605 32.8923C44.4464 33.0609 44.2456 33.1452 43.9999 33.1452H40.9004C40.5649 33.1452 40.3218 33.0609 40.1764 32.8923C40.0311 32.7237 39.9228 32.6078 39.8567 32.5393L30.894 18.9692V32.3048C30.894 32.5525 30.8147 32.7527 30.6588 32.9081C30.5003 33.0662 30.2994 33.1426 30.0537 33.1426H26.6478V33.1426Z" fill="black"/>
<path d="M56.8022 33.1426C56.5538 33.1426 56.353 33.0635 56.1971 32.9081C56.0385 32.7527 55.9619 32.5498 55.9619 32.3048V24.9125L48.0772 10.7049C48.0534 10.6391 48.0323 10.5758 48.0112 10.5205C47.9874 10.4652 47.9768 10.402 47.9768 10.3361C47.9768 10.157 48.0481 9.99625 48.1961 9.84873C48.3414 9.70383 48.5053 9.63007 48.6849 9.63007H52.2574C52.5718 9.63007 52.8175 9.7091 52.9999 9.86453C53.1795 10.0226 53.3037 10.1675 53.3698 10.3019L58.6597 19.5382L63.9444 10.3019C64.0104 10.1675 64.1346 10.0226 64.3143 9.86453C64.494 9.7091 64.7397 9.63007 65.0568 9.63007H68.6292C68.8089 9.63007 68.9701 9.70383 69.118 9.84873C69.2634 9.99362 69.3373 10.157 69.3373 10.3361C69.3373 10.402 69.3268 10.4652 69.303 10.5205C69.2792 10.5758 69.2581 10.6391 69.2343 10.7049L61.3496 24.9125V32.3022C61.3496 32.5498 61.2703 32.75 61.1144 32.9055C60.9559 33.0635 60.7551 33.1399 60.5093 33.1399H56.8022V33.1426Z" fill="black"/>
<path d="M78.4979 33.1426C78.2495 33.1426 78.0487 33.0636 77.8902 32.9081C77.7316 32.7527 77.655 32.5498 77.655 32.3048V14.2983H71.5222C71.2976 14.2983 71.1073 14.2193 70.9488 14.0639C70.7903 13.9084 70.7136 13.7161 70.7136 13.4922V10.4705C70.7136 10.2255 70.7929 10.0226 70.9488 9.86719C71.1047 9.71175 71.2976 9.63272 71.5222 9.63272H89.1755C89.4213 9.63272 89.6247 9.71175 89.7833 9.86719C89.9392 10.0253 90.0184 10.2255 90.0184 10.4705V13.4922C90.0184 13.7161 89.9392 13.9058 89.7833 14.0639C89.6247 14.2219 89.4239 14.2983 89.1755 14.2983H83.0771V32.3022C83.0771 32.5498 82.9978 32.7501 82.8419 32.9055C82.6833 33.0636 82.4825 33.14 82.2368 33.14H78.4979V33.1426Z" fill="black"/>
<path d="M100.229 33.1426C99.9803 33.1426 99.7795 33.0635 99.6236 32.9081C99.465 32.7527 99.3884 32.5498 99.3884 32.3048V24.9125L91.5037 10.7049C91.4799 10.6391 91.4588 10.5758 91.4377 10.5205C91.4139 10.4652 91.4033 10.402 91.4033 10.3361C91.4033 10.157 91.4747 9.99625 91.6226 9.84873C91.768 9.70383 91.9318 9.63007 92.1115 9.63007H95.6839C95.9983 9.63007 96.244 9.7091 96.4264 9.86453C96.606 10.0226 96.7302 10.1675 96.7963 10.3019L102.086 19.5382L107.376 10.3019C107.442 10.1675 107.566 10.0226 107.746 9.86453C107.926 9.7091 108.171 9.63007 108.489 9.63007H112.061C112.241 9.63007 112.402 9.70383 112.55 9.84873C112.695 9.99362 112.769 10.157 112.769 10.3361C112.769 10.402 112.759 10.4652 112.735 10.5205C112.711 10.5758 112.69 10.6391 112.666 10.7049L104.781 24.9125V32.3022C104.781 32.5498 104.702 32.75 104.546 32.9055C104.388 33.0635 104.187 33.1399 103.941 33.1399H100.229V33.1426Z" fill="black"/>
<path d="M116.735 33.1426C116.511 33.1426 116.315 33.0636 116.146 32.9081C115.977 32.7527 115.892 32.5498 115.892 32.3048V10.4705C115.892 10.2255 115.977 10.0226 116.146 9.86719C116.315 9.71175 116.511 9.63272 116.735 9.63272H119.869C120.204 9.63272 120.458 9.72229 120.627 9.90144C120.796 10.0806 120.913 10.2149 120.981 10.3045L127.18 21.6906L133.448 10.3045C133.493 10.2149 133.598 10.0806 133.768 9.90144C133.937 9.72229 134.188 9.63272 134.526 9.63272H137.66C137.905 9.63272 138.109 9.71175 138.265 9.86719C138.421 10.0253 138.5 10.2255 138.5 10.4705V32.3048C138.5 32.5525 138.421 32.7527 138.265 32.9081C138.106 33.0662 137.905 33.1426 137.66 33.1426H134.222C133.997 33.1426 133.807 33.0636 133.649 32.9081C133.49 32.7527 133.413 32.5498 133.413 32.3048V18.7321L129.136 26.7277C129.022 26.9279 128.877 27.1097 128.697 27.2651C128.517 27.4232 128.282 27.4996 127.989 27.4996H126.406C126.113 27.4996 125.878 27.4206 125.698 27.2651C125.518 27.1097 125.373 26.9279 125.259 26.7277L120.981 18.7321V32.3022C120.981 32.5498 120.902 32.7501 120.746 32.9055C120.588 33.0636 120.397 33.14 120.173 33.14H116.735V33.1426Z" fill="black"/>
<path d="M151.976 33.4798C149.82 33.4798 148.018 33.1663 146.57 32.5393C145.122 31.9123 144.025 31.0957 143.285 30.0867C142.543 29.0777 142.152 28.0028 142.107 26.8621C142.107 26.6829 142.173 26.5222 142.31 26.3747C142.445 26.2298 142.614 26.156 142.815 26.156H146.419C146.71 26.156 146.934 26.2193 147.093 26.3405C147.249 26.4643 147.397 26.6144 147.532 26.7936C147.687 27.1756 147.941 27.5444 148.29 27.9027C148.639 28.261 149.114 28.5587 149.722 28.7931C150.33 29.0276 151.08 29.1462 151.979 29.1462C153.437 29.1462 154.534 28.9117 155.263 28.4401C155.992 27.9686 156.357 27.331 156.357 26.5249C156.357 25.9427 156.159 25.4737 155.768 25.1154C155.374 24.7572 154.758 24.4331 153.915 24.1407C153.072 23.8509 151.955 23.5374 150.562 23.2002C148.876 22.8419 147.447 22.3782 146.266 21.8066C145.087 21.2349 144.2 20.4972 143.605 19.5884C143.01 18.6821 142.712 17.5572 142.712 16.2136C142.712 14.87 143.082 13.6766 143.824 12.636C144.564 11.5954 145.611 10.7787 146.958 10.1834C148.306 9.5906 149.912 9.29291 151.775 9.29291C153.279 9.29291 154.61 9.49313 155.768 9.8962C156.925 10.2993 157.889 10.8262 158.666 11.4742C159.44 12.1249 160.03 12.8178 160.434 13.5581C160.838 14.2957 161.052 15.0149 161.073 15.7078C161.073 15.8869 161.005 16.0503 160.87 16.1952C160.735 16.3401 160.566 16.4138 160.365 16.4138H156.592C156.367 16.4138 156.164 16.3691 155.987 16.2795C155.807 16.1899 155.662 16.0345 155.548 15.8079C155.414 15.2257 155.015 14.7172 154.351 14.2799C153.688 13.8426 152.829 13.624 151.775 13.624C150.673 13.624 149.804 13.8242 149.164 14.2272C148.525 14.6303 148.205 15.2468 148.205 16.074C148.205 16.6114 148.369 17.0645 148.694 17.4334C149.019 17.8022 149.569 18.1289 150.346 18.4081C151.12 18.6874 152.148 18.9956 153.429 19.3328C155.406 19.7359 157.012 20.218 158.246 20.7765C159.48 21.3376 160.392 22.0595 160.976 22.942C161.56 23.8272 161.853 24.9416 161.853 26.2851C161.853 27.7868 161.433 29.0724 160.59 30.1472C159.747 31.2221 158.59 32.0441 157.12 32.6157C155.643 33.1927 153.929 33.4798 151.976 33.4798Z" fill="#FCBA00"/>
<path d="M166.294 33.1426C166.046 33.1426 165.845 33.0636 165.689 32.9081C165.531 32.7527 165.454 32.5498 165.454 32.3048V10.4705C165.454 10.2255 165.533 10.0226 165.689 9.86719C165.845 9.71175 166.049 9.63272 166.294 9.63272H169.967C170.213 9.63272 170.417 9.71175 170.575 9.86719C170.731 10.0253 170.81 10.2255 170.81 10.4705V18.8665H179.939V10.4705C179.939 10.2255 180.019 10.0226 180.175 9.86719C180.331 9.71175 180.534 9.63272 180.78 9.63272H184.453C184.698 9.63272 184.902 9.71175 185.058 9.86719C185.214 10.0253 185.293 10.2255 185.293 10.4705V32.3048C185.293 32.5525 185.214 32.7527 185.058 32.9081C184.899 33.0662 184.698 33.1426 184.453 33.1426H180.78C180.531 33.1426 180.331 33.0636 180.175 32.9081C180.016 32.7527 179.939 32.5498 179.939 32.3048V23.6375H170.81V32.3048C170.81 32.5525 170.731 32.7527 170.575 32.9081C170.417 33.0662 170.216 33.1426 169.967 33.1426H166.294V33.1426Z" fill="#FCBA00"/>
<path d="M214.808 33.1426C214.559 33.1426 214.358 33.0636 214.203 32.9081C214.044 32.7527 213.967 32.5498 213.967 32.3048V10.4705C213.967 10.2255 214.047 10.0226 214.203 9.86719C214.358 9.71175 214.562 9.63272 214.808 9.63272H224.006C225.826 9.63272 227.404 9.91197 228.738 10.4731C230.075 11.0343 231.119 11.8773 231.872 13.0101C232.625 14.1403 233 15.5471 233 17.2252C233 18.9271 232.625 20.3312 231.872 21.4403C231.119 22.5495 230.075 23.3714 228.738 23.9088C227.401 24.4463 225.824 24.715 224.006 24.715H219.492V32.3075C219.492 32.5551 219.413 32.7553 219.257 32.9108C219.099 33.0688 218.898 33.1452 218.652 33.1452H214.808V33.1426ZM219.389 20.5473H223.836C224.983 20.5473 225.874 20.268 226.516 19.7069C227.155 19.1484 227.475 18.308 227.475 17.1883C227.475 16.2031 227.19 15.3969 226.616 14.7699C226.043 14.1429 225.118 13.8294 223.836 13.8294H219.389V20.5473Z" fill="#FCBA00"/>
</svg>
